<svg xmlns="http://www.w3.org/2000/svg" id="icon-utility-patent:after" width="22" height="22" viewBox="0 0 48 48" x="0" y="0">
<path fill="#fff" d="M31.2 21.12v-1.92l-2.592-0.432c-0.096-0.432-0.288-0.864-0.528-1.2l1.536-2.16-1.344-1.344-2.16 1.536c-0.384-0.24-0.768-0.384-1.2-0.528l-0.432-2.592h-1.92l-0.432 2.592c-0.432 0.096-0.864 0.288-1.2 0.528l-2.16-1.536-1.344 1.344 1.536 2.16c-0.24 0.384-0.384 0.768-0.528 1.2l-2.592 0.432v1.92l2.592 0.432c0.096 0.432 0.288 0.864 0.528 1.2l-1.536 2.16 1.344 1.344 2.16-1.536c0.384 0.24 0.768 0.384 1.2 0.528l0.432 2.592h1.92l0.432-2.592c0.432-0.096 0.864-0.288 1.2-0.528l2.16 1.536 1.344-1.344-1.536-2.16c0.24-0.384 0.384-0.768 0.528-1.2l2.592-0.432zM23.52 22.992c-1.584 0-2.832-1.296-2.832-2.832s1.296-2.832 2.832-2.832 2.832 1.296 2.832 2.832-1.248 2.832-2.832 2.832z"/>
<path fill="#fff" d="M36.96 20.16c0-7.392-6.048-13.44-13.44-13.44s-13.44 6.048-13.44 13.44c0 4.272 1.968 8.064 5.088 10.512l-3.6 6.288h4.8l2.88 4.32 4.32-7.68 4.32 7.68 2.88-4.32h4.8l-3.6-6.336c3.024-2.496 4.992-6.24 4.992-10.464zM24.624 31.632c-0.336 0.048-0.72 0.048-1.104 0.048-0.336 0-0.672 0-1.008-0.048-2.448-0.192-4.656-1.152-6.384-2.64-2.544-2.112-4.128-5.28-4.128-8.832 0-6.336 5.184-11.52 11.52-11.52s11.52 5.184 11.52 11.52c0 3.504-1.584 6.624-4.032 8.736-1.776 1.536-3.936 2.496-6.384 2.736z"/>
</svg>