<svg xmlns="http://www.w3.org/2000/svg" viewBox="0 0 132 132"><defs><style>.a{fill:#fff;}</style></defs><title>myuspto-icon</title><path class="a" d="M271,337H163a12,12,0,0,1-12-12V217a12,12,0,0,1,12-12H271a12,12,0,0,1,12,12V325A12,12,0,0,1,271,337Zm-43.68-98.86H209.65l-11.23,32.51a78.19,78.19,0,0,0-2.19,7.93H196a46.53,46.53,0,0,0-1.95-7.86l-11.23-32.58H164.69v55h11.15v-30.4q0-6.13-.5-14.26h.35a71.31,71.31,0,0,0,1.72,7.67l13.11,37h10.12l12.88-37.37a58.33,58.33,0,0,0,1.73-7.29h.3q-.45,6.45-.46,11.77v32.89h12.23Zm35.11,15.72L255,277.81a36,36,0,0,0-1.27,5.18h-.15a31.34,31.34,0,0,0-1.08-5.25l-7.32-23.88H231.81L247.75,293l-2.07,4.87a6.55,6.55,0,0,1-6.51,4.41,10.15,10.15,0,0,1-5.26-1.42v9.66a22.38,22.38,0,0,0,7.25,1q11.58,0,17.33-15.3l15.94-42.39Z" transform="translate(-151 -205)"/></svg>